<svg width="20" height="20" viewBox="0 0 20 20" fill="none" xmlns="http://www.w3.org/2000/svg">
<path fill-rule="evenodd" clip-rule="evenodd" d="M18.2916 4.3664C18.5259 4.60081 18.6576 4.91869 18.6576 5.25015C18.6576 5.58161 18.5259 5.89949 18.2916 6.1339L8.92244 15.5031C8.79863 15.6269 8.65163 15.7252 8.48984 15.7922C8.32806 15.8592 8.15465 15.8937 7.97953 15.8937C7.80441 15.8937 7.631 15.8592 7.46921 15.7922C7.30743 15.7252 7.16043 15.6269 7.03661 15.5031L2.38161 10.8489C2.26222 10.7336 2.16699 10.5957 2.10148 10.4432C2.03597 10.2907 2.00149 10.1266 2.00005 9.96065C1.9986 9.79468 2.03023 9.63008 2.09308 9.47646C2.15593 9.32284 2.24875 9.18327 2.36612 9.06591C2.48348 8.94854 2.62305 8.85572 2.77667 8.79287C2.93029 8.73002 3.09489 8.69839 3.26086 8.69984C3.42684 8.70128 3.59086 8.73576 3.74337 8.80127C3.89587 8.86678 4.0338 8.96201 4.14911 9.0814L7.97911 12.9114L16.5233 4.3664C16.6394 4.25024 16.7772 4.1581 16.9289 4.09523C17.0806 4.03236 17.2432 4 17.4074 4C17.5717 4 17.7343 4.03236 17.886 4.09523C18.0377 4.1581 18.1755 4.25024 18.2916 4.3664Z" fill="#4093FD"/>
</svg>
