<svg width="20" height="21" viewBox="0 0 20 21" fill="currentColor" xmlns="http://www.w3.org/2000/svg">
<path fill-rule="evenodd" clip-rule="evenodd" d="M18.2916 4.8664C18.526 5.10081 18.6576 5.41869 18.6576 5.75015C18.6576 6.08161 18.526 6.39949 18.2916 6.6339L8.92247 16.0031C8.79866 16.1269 8.65166 16.2252 8.48987 16.2922C8.32809 16.3592 8.15468 16.3937 7.97956 16.3937C7.80444 16.3937 7.63103 16.3592 7.46924 16.2922C7.30746 16.2252 7.16046 16.1269 7.03664 16.0031L2.38164 11.3489C2.26225 11.2336 2.16703 11.0957 2.10151 10.9432C2.036 10.7907 2.00152 10.6266 2.00008 10.4607C1.99864 10.2947 2.03026 10.1301 2.09311 9.97646C2.15596 9.82284 2.24878 9.68327 2.36615 9.56591C2.48351 9.44854 2.62308 9.35572 2.7767 9.29287C2.93032 9.23002 3.09492 9.19839 3.26089 9.19984C3.42687 9.20128 3.59089 9.23576 3.7434 9.30127C3.8959 9.36678 4.03383 9.46201 4.14914 9.5814L7.97914 13.4114L16.5233 4.8664C16.6394 4.75024 16.7772 4.6581 16.9289 4.59523C17.0806 4.53236 17.2433 4.5 17.4075 4.5C17.5717 4.5 17.7343 4.53236 17.886 4.59523C18.0377 4.6581 18.1756 4.75024 18.2916 4.8664Z" fill="currentColor"/>
</svg>
