<svg width="24" height="24" viewBox="0 0 24 24" fill="none" xmlns="http://www.w3.org/2000/svg">
<path d="M12.2877 13.8392L6.8567 19.2702C6.6535 19.4733 6.39488 19.575 6.08085 19.575C5.76681 19.575 5.50819 19.4733 5.30499 19.2702C5.10179 19.067 5.0002 18.8083 5.0002 18.4943C5.0002 18.1803 5.10179 17.9216 5.30499 17.7184L10.736 12.2875L5.30499 6.8565C5.10179 6.65331 5.0002 6.39469 5.0002 6.08065C5.0002 5.76662 5.10179 5.508 5.30499 5.3048C5.50819 5.1016 5.76681 5 6.08085 5C6.39488 5 6.6535 5.1016 6.8567 5.3048L12.2877 10.7358L17.7186 5.3048C17.9218 5.1016 18.1805 5 18.4945 5C18.8085 5 19.0671 5.1016 19.2703 5.3048C19.4735 5.508 19.5751 5.76662 19.5751 6.08065C19.5751 6.39469 19.4735 6.65331 19.2703 6.8565L13.8394 12.2875L19.2703 17.7184C19.4735 17.9216 19.5751 18.1803 19.5751 18.4943C19.5751 18.8083 19.4735 19.067 19.2703 19.2702C19.0671 19.4733 18.8085 19.575 18.4945 19.575C18.1805 19.575 17.9218 19.4733 17.7186 19.2702L12.2877 13.8392Z" fill="white"/>
</svg>
