<svg width="35" height="35" viewBox="0 0 35 35" fill="none" xmlns="http://www.w3.org/2000/svg">
<g clip-path="url(#clip0_304_1863)">
<path d="M8.75008 27.7083C8.75008 29.3125 10.0626 30.625 11.6667 30.625H23.3334C24.9376 30.625 26.2501 29.3125 26.2501 27.7083V13.125C26.2501 11.5208 24.9376 10.2083 23.3334 10.2083H11.6667C10.0626 10.2083 8.75008 11.5208 8.75008 13.125V27.7083ZM26.2501 5.83333H22.6042L21.5688 4.79792C21.3063 4.53542 20.9272 4.375 20.548 4.375H14.4522C14.073 4.375 13.6938 4.53542 13.4313 4.79792L12.3959 5.83333H8.75008C7.948 5.83333 7.29175 6.48958 7.29175 7.29167C7.29175 8.09375 7.948 8.75 8.75008 8.75H26.2501C27.0522 8.75 27.7084 8.09375 27.7084 7.29167C27.7084 6.48958 27.0522 5.83333 26.2501 5.83333Z" fill="#E4E5E8"/>
</g>
<g clip-path="url(#clip1_304_1863)">
<path d="M8.75008 27.7083C8.75008 29.3125 10.0626 30.625 11.6667 30.625H23.3334C24.9376 30.625 26.2501 29.3125 26.2501 27.7083V13.125C26.2501 11.5208 24.9376 10.2083 23.3334 10.2083H11.6667C10.0626 10.2083 8.75008 11.5208 8.75008 13.125V27.7083ZM26.2501 5.83333H22.6042L21.5688 4.79792C21.3063 4.53542 20.9272 4.375 20.548 4.375H14.4522C14.073 4.375 13.6938 4.53542 13.4313 4.79792L12.3959 5.83333H8.75008C7.948 5.83333 7.29175 6.48958 7.29175 7.29167C7.29175 8.09375 7.948 8.75 8.75008 8.75H26.2501C27.0522 8.75 27.7084 8.09375 27.7084 7.29167C27.7084 6.48958 27.0522 5.83333 26.2501 5.83333Z" fill="#9EA4B6"/>
</g>
<defs>
<clipPath id="clip0_304_1863">
<rect width="35" height="9.8" fill="white"/>
</clipPath>
<clipPath id="clip1_304_1863">
<rect width="35" height="25.2" fill="white" transform="translate(0 9.80005)"/>
</clipPath>
</defs>
</svg>
