<svg width="16" height="16" viewBox="0 0 16 16" fill="none" xmlns="http://www.w3.org/2000/svg">
<path d="M1.636 5.29303C1.82353 5.10556 2.07784 5.00024 2.343 5.00024C2.60817 5.00024 2.86247 5.10556 3.05 5.29303L8 10.243L12.95 5.29303C13.1386 5.11087 13.3912 5.01008 13.6534 5.01236C13.9156 5.01463 14.1664 5.1198 14.3518 5.30521C14.5372 5.49062 14.6424 5.74143 14.6447 6.00363C14.647 6.26583 14.5462 6.51843 14.364 6.70703L8.707 12.364C8.51947 12.5515 8.26517 12.6568 8 12.6568C7.73484 12.6568 7.48053 12.5515 7.293 12.364L1.636 6.70703C1.44853 6.5195 1.34322 6.26519 1.34322 6.00003C1.34322 5.73487 1.44853 5.48056 1.636 5.29303Z" fill="#343845"/>
</svg>
