<svg width="40" height="40" viewBox="0 0 40 40" fill="none" xmlns="http://www.w3.org/2000/svg">
<g clip-path="url(#clip0_289_2445)">
<rect width="40" height="40" rx="20" fill="#343845"/>
<mask id="path-2-inside-1_289_2445" fill="white">
<path fill-rule="evenodd" clip-rule="evenodd" d="M17.987 18.3016C18.0953 18.6205 18.1648 18.9392 18.1981 19.2527C18.7899 19.2001 19.3911 19.1732 20 19.1732C20.6089 19.1732 21.2102 19.2002 21.802 19.2527C21.8354 18.9391 21.9049 18.6205 22.0132 18.3016C22.7876 16.0215 25.2502 14.5903 27.5134 15.1049C29.7767 15.6195 30.9837 17.885 30.2093 20.1651C30.0308 20.6905 29.7627 21.1708 29.4281 21.5927C33.703 24.0322 36.5 28.0854 36.5 32.6732C36.5 40.129 29.1127 46.1732 20 46.1732C10.8873 46.1732 3.5 40.129 3.5 32.6732C3.5 28.0854 6.29705 24.0321 10.572 21.5926C10.2374 21.1707 9.96924 20.6903 9.7908 20.1648C9.01655 17.8847 10.2237 15.6192 12.487 15.1047C14.7503 14.5902 17.2127 16.0215 17.987 18.3016Z"/>
</mask>
<path fill-rule="evenodd" clip-rule="evenodd" d="M17.987 18.3016C18.0953 18.6205 18.1648 18.9392 18.1981 19.2527C18.7899 19.2001 19.3911 19.1732 20 19.1732C20.6089 19.1732 21.2102 19.2002 21.802 19.2527C21.8354 18.9391 21.9049 18.6205 22.0132 18.3016C22.7876 16.0215 25.2502 14.5903 27.5134 15.1049C29.7767 15.6195 30.9837 17.885 30.2093 20.1651C30.0308 20.6905 29.7627 21.1708 29.4281 21.5927C33.703 24.0322 36.5 28.0854 36.5 32.6732C36.5 40.129 29.1127 46.1732 20 46.1732C10.8873 46.1732 3.5 40.129 3.5 32.6732C3.5 28.0854 6.29705 24.0321 10.572 21.5926C10.2374 21.1707 9.96924 20.6903 9.7908 20.1648C9.01655 17.8847 10.2237 15.6192 12.487 15.1047C14.7503 14.5902 17.2127 16.0215 17.987 18.3016Z" fill="#E2B45B"/>
<path d="M18.1981 19.2527L17.4026 19.3372L17.4856 20.1192L18.2689 20.0496L18.1981 19.2527ZM17.987 18.3016L18.7445 18.0444L18.7445 18.0444L17.987 18.3016ZM21.802 19.2527L21.7312 20.0496L22.5145 20.1192L22.5976 19.3373L21.802 19.2527ZM22.0132 18.3016L22.7707 18.5589L22.7707 18.5589L22.0132 18.3016ZM27.5134 15.1049L27.6908 14.3248L27.6908 14.3248L27.5134 15.1049ZM30.2093 20.1651L30.9668 20.4223L30.9668 20.4223L30.2093 20.1651ZM29.4281 21.5927L28.8014 21.0955L28.2222 21.8256L29.0316 22.2875L29.4281 21.5927ZM10.572 21.5926L10.9685 22.2874L11.778 21.8255L11.1988 21.0954L10.572 21.5926ZM9.7908 20.1648L10.5483 19.9075L10.5483 19.9075L9.7908 20.1648ZM18.9936 19.1682C18.954 18.7948 18.8715 18.4183 18.7445 18.0444L17.2295 18.5589C17.3191 18.8228 17.3756 19.0835 17.4026 19.3372L18.9936 19.1682ZM20 18.3732C19.3675 18.3732 18.7426 18.4012 18.1273 18.4559L18.2689 20.0496C18.8372 19.9991 19.4147 19.9732 20 19.9732V18.3732ZM21.8729 18.4559C21.2575 18.4012 20.6326 18.3732 20 18.3732V19.9732C20.5853 19.9732 21.1629 19.9991 21.7312 20.0496L21.8729 18.4559ZM22.5976 19.3373C22.6245 19.0835 22.6811 18.8228 22.7707 18.5589L21.2557 18.0443C21.1287 18.4183 21.0462 18.7948 21.0065 19.1682L22.5976 19.3373ZM22.7707 18.5589C23.4211 16.644 25.4953 15.4665 27.3361 15.885L27.6908 14.3248C25.005 13.7142 22.1542 15.399 21.2557 18.0443L22.7707 18.5589ZM27.3361 15.885C29.1051 16.2872 30.0841 18.0461 29.4518 19.9078L30.9668 20.4223C31.8833 17.7239 30.4483 14.9518 27.6908 14.3248L27.3361 15.885ZM29.4518 19.9078C29.3041 20.3425 29.0816 20.7423 28.8014 21.0955L30.0548 22.0898C30.4439 21.5994 30.7575 21.0385 30.9668 20.4223L29.4518 19.9078ZM37.3 32.6732C37.3 27.7372 34.2911 23.4467 29.8246 20.8978L29.0316 22.2875C33.1149 24.6176 35.7 28.4336 35.7 32.6732H37.3ZM20 46.9732C29.3969 46.9732 37.3 40.7134 37.3 32.6732H35.7C35.7 39.5446 28.8285 45.3732 20 45.3732V46.9732ZM2.7 32.6732C2.7 40.7134 10.6031 46.9732 20 46.9732V45.3732C11.1715 45.3732 4.3 39.5446 4.3 32.6732H2.7ZM10.1755 20.8977C5.70894 23.4466 2.7 27.7372 2.7 32.6732H4.3C4.3 28.4336 6.88517 24.6176 10.9685 22.2874L10.1755 20.8977ZM9.03328 20.422C9.24253 21.0382 9.55616 21.5992 9.94529 22.0898L11.1988 21.0954C10.9186 20.7421 10.696 20.3423 10.5483 19.9075L9.03328 20.422ZM12.3096 14.3246C9.55213 14.9514 8.11696 17.7235 9.03328 20.422L10.5483 19.9075C9.91613 18.0458 10.8952 16.287 12.6643 15.8848L12.3096 14.3246ZM18.7445 18.0444C17.8462 15.3991 14.9955 13.7141 12.3096 14.3246L12.6643 15.8848C14.5051 15.4664 16.5792 16.644 17.2295 18.5589L18.7445 18.0444Z" fill="#B48A3E" mask="url(#path-2-inside-1_289_2445)"/>
<ellipse cx="17" cy="28.5" rx="1.5" ry="2" fill="black"/>
<ellipse cx="23" cy="28.5" rx="1.5" ry="2" fill="black"/>
<path d="M20.9459 32.7262C20.9459 33.1821 20.8261 33.4723 20.6716 33.6448C20.5199 33.8142 20.305 33.904 20.0396 33.904C19.7733 33.904 19.55 33.8135 19.3912 33.6414C19.231 33.4678 19.1066 33.1783 19.1066 32.7262C19.1066 32.2713 19.228 32.0708 19.352 31.9705C19.49 31.8588 19.7072 31.8065 20.0262 31.8065C20.3452 31.8065 20.5625 31.8588 20.7004 31.9705C20.8245 32.0708 20.9459 32.2713 20.9459 32.7262Z" stroke="#BA3A3B" stroke-width="0.613094"/>
<g filter="url(#filter0_f_289_2445)">
<circle cx="28.5" cy="30" r="1.5" fill="#9F3435"/>
</g>
<g filter="url(#filter1_f_289_2445)">
<circle cx="12.5" cy="30" r="1.5" fill="#9F3435"/>
</g>
</g>
<defs>
<filter id="filter0_f_289_2445" x="22.6" y="24.1" width="11.8" height="11.8" filterUnits="userSpaceOnUse" color-interpolation-filters="sRGB">
<feFlood flood-opacity="0" result="BackgroundImageFix"/>
<feBlend mode="normal" in="SourceGraphic" in2="BackgroundImageFix" result="shape"/>
<feGaussianBlur stdDeviation="2.2" result="effect1_foregroundBlur_289_2445"/>
</filter>
<filter id="filter1_f_289_2445" x="6.6" y="24.1" width="11.8" height="11.8" filterUnits="userSpaceOnUse" color-interpolation-filters="sRGB">
<feFlood flood-opacity="0" result="BackgroundImageFix"/>
<feBlend mode="normal" in="SourceGraphic" in2="BackgroundImageFix" result="shape"/>
<feGaussianBlur stdDeviation="2.2" result="effect1_foregroundBlur_289_2445"/>
</filter>
<clipPath id="clip0_289_2445">
<rect width="40" height="40" rx="20" fill="white"/>
</clipPath>
</defs>
</svg>
