<svg width="38" height="37" viewBox="0 0 38 37" fill="none" xmlns="http://www.w3.org/2000/svg">
<g id="on">
<path id="Union" d="M20.7754 4.63686C21.6284 2.12527 24.3409 0.548556 26.834 1.11538C29.3271 1.68222 30.6568 4.17799 29.8037 6.6896C29.5379 7.472 29.0902 8.16234 28.5264 8.72671C32.2646 11.4463 34.667 15.6772 34.667 20.4289C34.6668 28.6341 27.5034 35.2853 18.667 35.2853C9.83056 35.2853 2.66719 28.6341 2.66699 20.4289C2.66699 15.7304 5.01586 11.541 8.68262 8.8185C8.07433 8.2379 7.59185 7.51414 7.31152 6.68862C6.45896 4.17727 7.78853 1.68228 10.2812 1.11538C12.7744 0.548647 15.487 2.12522 16.3398 4.63686C16.4606 4.99249 16.5361 5.34786 16.5723 5.69741C17.2578 5.61417 17.957 5.57143 18.667 5.57143C19.3023 5.57143 19.9289 5.60612 20.5449 5.67299C20.5821 5.33131 20.6574 4.98422 20.7754 4.63686Z" fill="#F1F4F5"/>
</g>
</svg>
