<svg width="33" height="35" viewBox="0 0 33 35" fill="none" xmlns="http://www.w3.org/2000/svg">
<path d="M18.9414 3.63686C19.7944 1.12527 22.5069 -0.451444 25 0.115377C27.4931 0.682219 28.8228 3.17799 27.9697 5.6896C27.7039 6.472 27.2562 7.16234 26.6924 7.72671C30.4307 10.4463 32.833 14.6772 32.833 19.4289C32.8328 27.6341 25.6694 34.2853 16.833 34.2853C7.99658 34.2853 0.83321 27.6341 0.833008 19.4289C0.833008 14.7304 3.18187 10.541 6.84863 7.8185C6.24034 7.2379 5.75786 6.51414 5.47754 5.68862C4.62498 3.17727 5.95455 0.682285 8.44727 0.115377C10.9404 -0.451353 13.653 1.12522 14.5059 3.63686C14.6266 3.99249 14.7021 4.34786 14.7383 4.69741C15.4238 4.61417 16.123 4.57143 16.833 4.57143C17.4683 4.57143 18.095 4.60612 18.7109 4.67299C18.7481 4.33131 18.8235 3.98422 18.9414 3.63686Z" fill="#F1F4F5"/>
</svg>
