<svg width="32" height="35" viewBox="0 0 32 35" fill="none" xmlns="http://www.w3.org/2000/svg">
<path id="Union" d="M18.1084 3.63686C18.9614 1.12527 21.6739 -0.451444 24.167 0.115377C26.6601 0.682219 27.9898 3.17799 27.1367 5.6896C26.8709 6.472 26.4232 7.16234 25.8594 7.72671C29.5977 10.4463 32 14.6772 32 19.4289C31.9998 27.6341 24.8364 34.2853 16 34.2853C7.16357 34.2853 0.000202602 27.6341 0 19.4289C0 14.7304 2.34886 10.541 6.01562 7.8185C5.40733 7.2379 4.92485 6.51414 4.64453 5.68862C3.79197 3.17727 5.12154 0.682285 7.61426 0.115377C10.1074 -0.451353 12.82 1.12522 13.6729 3.63686C13.7936 3.99249 13.8691 4.34786 13.9053 4.69741C14.5908 4.61417 15.29 4.57143 16 4.57143C16.6353 4.57143 17.2619 4.60612 17.8779 4.67299C17.9151 4.33131 17.9904 3.98422 18.1084 3.63686Z" fill="#343845"/>
</svg>
