<svg width="162" height="56" viewBox="0 0 162 56" fill="none" xmlns="http://www.w3.org/2000/svg">
<g filter="url(#filter0_d_1775_4627)">
<rect x="128" y="48" width="124" height="38" rx="8" transform="rotate(-180 128 48)" fill="#343845" shape-rendering="crispEdges"/>
<path d="M25.0598 25.308H18.6638V24.324H21.2438V23.076H22.4798V24.324H25.0598V25.308ZM28.6478 26.544V27.564H27.1118V31.212H25.8758V23.088H27.1118V26.544H28.6478ZM24.4838 27.864C24.4838 28.176 24.4198 28.46 24.2918 28.716C24.1638 28.964 23.9838 29.18 23.7518 29.364C23.5198 29.54 23.2438 29.676 22.9238 29.772C22.6038 29.868 22.2478 29.916 21.8558 29.916C21.4718 29.916 21.1158 29.868 20.7878 29.772C20.4678 29.676 20.1918 29.54 19.9598 29.364C19.7278 29.18 19.5478 28.964 19.4198 28.716C19.2918 28.46 19.2278 28.176 19.2278 27.864C19.2278 27.56 19.2918 27.284 19.4198 27.036C19.5478 26.78 19.7278 26.564 19.9598 26.388C20.1918 26.204 20.4678 26.064 20.7878 25.968C21.1158 25.864 21.4718 25.812 21.8558 25.812C22.2478 25.812 22.6038 25.864 22.9238 25.968C23.2438 26.064 23.5198 26.204 23.7518 26.388C23.9838 26.564 24.1638 26.78 24.2918 27.036C24.4198 27.284 24.4838 27.56 24.4838 27.864ZM20.4158 27.864C20.4158 28.208 20.5478 28.476 20.8118 28.668C21.0758 28.86 21.4238 28.956 21.8558 28.956C22.2878 28.956 22.6358 28.86 22.8998 28.668C23.1718 28.476 23.3078 28.208 23.3078 27.864C23.3078 27.52 23.1718 27.252 22.8998 27.06C22.6358 26.868 22.2878 26.772 21.8558 26.772C21.4238 26.772 21.0758 26.868 20.8118 27.06C20.5478 27.252 20.4158 27.52 20.4158 27.864ZM21.4958 32.712H27.5438V33.72H20.2478V30.588H21.4958V32.712ZM31.6545 26.148C32.1505 26.108 32.6065 26.036 33.0225 25.932C33.4465 25.82 33.8145 25.688 34.1265 25.536C34.4465 25.376 34.7065 25.2 34.9065 25.008C35.1065 24.808 35.2385 24.6 35.3025 24.384H32.0745V23.412H40.0905V24.384H36.8385C36.9025 24.6 37.0345 24.808 37.2345 25.008C37.4345 25.2 37.6905 25.376 38.0025 25.536C38.3225 25.688 38.6905 25.82 39.1065 25.932C39.5305 26.036 39.9905 26.108 40.4865 26.148L40.1025 27.084C39.1585 27.004 38.3345 26.808 37.6305 26.496C36.9265 26.176 36.4065 25.764 36.0705 25.26C35.7345 25.764 35.2225 26.176 34.5345 26.496C33.8465 26.808 33.0185 27.004 32.0505 27.084L31.6545 26.148ZM36.6825 28.488V29.4H39.7425V32.016H33.5745V32.88H40.0545V33.828H32.3505V31.14H38.5305V30.312H32.3265V29.4H35.4465V28.488H31.1625V27.504H40.9785V28.488H36.6825ZM51.4296 31.632V32.652H41.6136V31.632H45.8856V29.784H42.8016V26.292H49.0416V24.84H42.7776V23.844H50.2656V27.276H44.0136V28.788H50.5056V29.784H47.1216V31.632H51.4296ZM63.0642 28.584H61.8282V23.076H63.0642V28.584ZM60.0282 25.884C60.0282 26.244 59.9562 26.572 59.8122 26.868C59.6682 27.164 59.4682 27.42 59.2122 27.636C58.9642 27.852 58.6642 28.02 58.3122 28.14C57.9602 28.26 57.5802 28.32 57.1722 28.32C56.7642 28.32 56.3882 28.26 56.0442 28.14C55.7002 28.02 55.4002 27.852 55.1442 27.636C54.8962 27.42 54.7002 27.164 54.5562 26.868C54.4122 26.572 54.3402 26.244 54.3402 25.884C54.3402 25.524 54.4122 25.196 54.5562 24.9C54.7002 24.596 54.8962 24.336 55.1442 24.12C55.4002 23.904 55.7002 23.736 56.0442 23.616C56.3882 23.496 56.7642 23.436 57.1722 23.436C57.5802 23.436 57.9602 23.496 58.3122 23.616C58.6642 23.736 58.9642 23.904 59.2122 24.12C59.4682 24.336 59.6682 24.596 59.8122 24.9C59.9562 25.196 60.0282 25.524 60.0282 25.884ZM55.5402 25.884C55.5402 26.1 55.5802 26.296 55.6602 26.472C55.7482 26.648 55.8642 26.8 56.0082 26.928C56.1522 27.048 56.3242 27.144 56.5242 27.216C56.7242 27.28 56.9402 27.312 57.1722 27.312C57.4122 27.312 57.6322 27.28 57.8322 27.216C58.0322 27.144 58.2042 27.048 58.3482 26.928C58.5002 26.8 58.6162 26.648 58.6962 26.472C58.7842 26.296 58.8282 26.1 58.8282 25.884C58.8282 25.668 58.7842 25.472 58.6962 25.296C58.6162 25.12 58.5002 24.972 58.3482 24.852C58.2042 24.724 58.0322 24.628 57.8322 24.564C57.6322 24.492 57.4122 24.456 57.1722 24.456C56.9402 24.456 56.7242 24.492 56.5242 24.564C56.3242 24.628 56.1522 24.724 56.0082 24.852C55.8642 24.972 55.7482 25.12 55.6602 25.296C55.5802 25.472 55.5402 25.668 55.5402 25.884ZM63.3882 32.82V33.792H55.9842V30.948H61.8402V30.048H55.9602V29.076H63.0642V31.86H57.1962V32.82H63.3882ZM72.3153 25.812V23.088H73.5513V29.544H72.3153V26.82H70.3953V25.812H72.3153ZM70.4073 29.196C69.8073 28.988 69.2953 28.684 68.8713 28.284C68.4473 27.876 68.1193 27.408 67.8873 26.88C67.6473 27.48 67.3033 28.008 66.8553 28.464C66.4073 28.912 65.8593 29.252 65.2113 29.484L64.5753 28.5C64.9993 28.348 65.3753 28.152 65.7033 27.912C66.0313 27.664 66.3073 27.384 66.5313 27.072C66.7553 26.76 66.9273 26.424 67.0473 26.064C67.1673 25.704 67.2273 25.34 67.2273 24.972V24.816H64.9353V23.82H70.7313V24.816H68.4753V24.96C68.4753 25.304 68.5313 25.64 68.6433 25.968C68.7553 26.296 68.9193 26.604 69.1353 26.892C69.3513 27.18 69.6153 27.44 69.9273 27.672C70.2473 27.896 70.6113 28.08 71.0193 28.224L70.4073 29.196ZM69.9513 29.832C70.5193 29.832 71.0273 29.88 71.4753 29.976C71.9233 30.064 72.3033 30.196 72.6153 30.372C72.9353 30.548 73.1793 30.764 73.3473 31.02C73.5153 31.268 73.5993 31.556 73.5993 31.884C73.5993 32.204 73.5153 32.492 73.3473 32.748C73.1793 33.004 72.9353 33.22 72.6153 33.396C72.3033 33.572 71.9233 33.704 71.4753 33.792C71.0273 33.888 70.5193 33.936 69.9513 33.936C69.3833 33.936 68.8713 33.888 68.4153 33.792C67.9673 33.704 67.5833 33.572 67.2633 33.396C66.9513 33.22 66.7113 33.004 66.5433 32.748C66.3753 32.492 66.2913 32.204 66.2913 31.884C66.2913 31.556 66.3753 31.268 66.5433 31.02C66.7113 30.764 66.9513 30.548 67.2633 30.372C67.5833 30.196 67.9673 30.064 68.4153 29.976C68.8713 29.88 69.3833 29.832 69.9513 29.832ZM69.9513 32.976C70.7273 32.976 71.3233 32.884 71.7393 32.7C72.1553 32.516 72.3633 32.244 72.3633 31.884C72.3633 31.524 72.1553 31.252 71.7393 31.068C71.3233 30.884 70.7273 30.792 69.9513 30.792C69.1753 30.792 68.5753 30.884 68.1513 31.068C67.7353 31.252 67.5273 31.524 67.5273 31.884C67.5273 32.244 67.7353 32.516 68.1513 32.7C68.5753 32.884 69.1753 32.976 69.9513 32.976ZM85.7739 27.252H78.3219V23.46H85.7019V24.456H79.5459V26.256H85.7739V27.252ZM86.9019 28.152V29.172H77.1099V28.152H86.9019ZM81.9699 29.976C82.5539 29.976 83.0739 30.02 83.5299 30.108C83.9939 30.196 84.3859 30.324 84.7059 30.492C85.0259 30.66 85.2699 30.868 85.4379 31.116C85.6139 31.356 85.7019 31.632 85.7019 31.944C85.7019 32.576 85.3779 33.064 84.7299 33.408C84.0899 33.752 83.1699 33.924 81.9699 33.924C81.3939 33.924 80.8739 33.88 80.4099 33.792C79.9459 33.704 79.5539 33.576 79.2339 33.408C78.9139 33.24 78.6659 33.032 78.4899 32.784C78.3219 32.536 78.2379 32.256 78.2379 31.944C78.2379 31.632 78.3219 31.356 78.4899 31.116C78.6659 30.868 78.9139 30.66 79.2339 30.492C79.5539 30.324 79.9459 30.196 80.4099 30.108C80.8739 30.02 81.3939 29.976 81.9699 29.976ZM81.9699 32.964C82.7699 32.964 83.3819 32.88 83.8059 32.712C84.2379 32.536 84.4539 32.28 84.4539 31.944C84.4539 31.608 84.2379 31.356 83.8059 31.188C83.3819 31.012 82.7699 30.924 81.9699 30.924C81.1699 30.924 80.5579 31.012 80.1339 31.188C79.7099 31.356 79.4979 31.608 79.4979 31.944C79.4979 32.28 79.7099 32.536 80.1339 32.712C80.5579 32.88 81.1699 32.964 81.9699 32.964ZM97.353 28.98V29.976H87.525V28.98H91.821V27.996H88.785V25.2H94.893V24.288H88.761V23.34H96.117V26.088H89.997V27.048H96.333V27.996H93.057V28.98H97.353ZM88.629 30.708H96.177V33.864H94.941V31.704H88.629V30.708ZM109.876 27.18V28.176H100.048V27.18H102.868C103.028 26.58 103.136 26.064 103.192 25.632C103.248 25.2 103.284 24.816 103.3 24.48H100.972V23.484H104.512V23.904C104.512 24.224 104.492 24.656 104.452 25.2C104.42 25.744 104.3 26.404 104.092 27.18H107.116C107.268 26.596 107.364 26.084 107.404 25.644C107.452 25.204 107.48 24.816 107.488 24.48H105.184V23.484H108.7V24.072C108.7 24.432 108.684 24.864 108.652 25.368C108.628 25.872 108.532 26.476 108.364 27.18H109.876ZM102.508 32.856H108.772V33.792H101.272V29.136H108.688V30.06H102.508V30.996H108.424V31.896H102.508V32.856ZM112.407 30.528H111.483L111.291 25.38L111.255 23.964H112.647L112.407 30.528ZM111.243 33.156V31.668H112.659V33.156H111.243Z" fill="white"/>
</g>
<path d="M104.285 2.85831C105.062 1.56363 106.938 1.56363 107.715 2.85831L112 10L100 10L104.285 2.85831Z" fill="#343845"/>
<defs>
<filter id="filter0_d_1775_4627" x="0" y="10" width="132" height="46" filterUnits="userSpaceOnUse" color-interpolation-filters="sRGB">
<feFlood flood-opacity="0" result="BackgroundImageFix"/>
<feColorMatrix in="SourceAlpha" type="matrix" values="0 0 0 0 0 0 0 0 0 0 0 0 0 0 0 0 0 0 127 0" result="hardAlpha"/>
<feOffset dy="4"/>
<feGaussianBlur stdDeviation="2"/>
<feComposite in2="hardAlpha" operator="out"/>
<feColorMatrix type="matrix" values="0 0 0 0 0 0 0 0 0 0 0 0 0 0 0 0 0 0 0.25 0"/>
<feBlend mode="normal" in2="BackgroundImageFix" result="effect1_dropShadow_1775_4627"/>
<feBlend mode="normal" in="SourceGraphic" in2="effect1_dropShadow_1775_4627" result="shape"/>
</filter>
</defs>
</svg>
