<svg width="28" height="28" viewBox="0 0 28 28" fill="none" xmlns="http://www.w3.org/2000/svg">
<g clip-path="url(#clip0_1336_5806)">
<rect width="27.9259" height="27.9259" rx="9" fill="#E3F1F2"/>
<path d="M16.249 8.45967C16.9736 6.32642 19.277 4.98716 21.3945 5.46846C23.5122 5.94993 24.6416 8.06949 23.917 10.2028C23.7498 10.695 23.4972 11.1438 23.1836 11.5388C27.1841 13.8212 29.8017 17.613 29.8018 21.906C29.8018 28.8819 22.8904 34.5367 14.3643 34.5368C5.83799 34.5368 -1.07422 28.882 -1.07422 21.906C-1.07418 17.6134 1.54307 13.8213 5.54297 11.5388C5.22956 11.1439 4.97762 10.6948 4.81055 10.2028C4.08616 8.0696 5.2156 5.95001 7.33301 5.46846C9.45067 4.98708 11.7551 6.3263 12.4795 8.45967C12.5807 8.75793 12.6446 9.05603 12.6758 9.34932C13.2302 9.29998 13.7938 9.2751 14.3643 9.2751C14.9345 9.27511 15.4975 9.30001 16.0518 9.34932C16.0829 9.05597 16.1477 8.758 16.249 8.45967Z" fill="#6FC6CF"/>
<path d="M10.7406 17.9012L13.3832 21.7183C13.6654 22.126 14.2665 22.1304 14.5546 21.727L19.3332 15.037" stroke="white" stroke-width="1.4321" stroke-linecap="round"/>
</g>
<defs>
<clipPath id="clip0_1336_5806">
<rect width="27.9259" height="27.9259" rx="9" fill="white"/>
</clipPath>
</defs>
</svg>
